<?xml version="1.0" encoding="UTF-8"?>
<svg id="Layer_1" xmlns="http://www.w3.org/2000/svg" version="1.1" viewBox="0 0 857.1 846.7">
  <!-- Generator: Adobe Illustrator 29.5.0, SVG Export Plug-In . SVG Version: 2.1.0 Build 137)  -->
  <defs>
    <style>
      .st0 {
        fill: #368446;
      }
    </style>
  </defs>
  <path class="st0" d="M116.8.3L737.5,0c63.7,3.7,115.8,55.7,119.5,119.4v600.1c-1.2,62.1-53.8,121.3-116.5,125.5-54.3,3.6-112.7.2-167.2.3-134.7.3-269.5,1.3-403.9-.4-20.3-.3-41.3,1.7-61.8-1.1C49.8,835.8,4.1,784.3-.1,726.5V116.5C5.6,54.2,54,4.6,116.8.3M560.8,106.3c-11.9,1-22.4,4.4-30.3,13.7-8.4,9.9-8.7,20.6-11.4,32.6-14.1,2.5-48.6-6.1-51.1,14.9-1,8.1-.9,29.9,0,38,1.4,12,12.8,16.3,23.5,16.5,52.9-2.5,108.5,3.2,161.1,0,9.8-.6,21.2-2.4,25-13,2.6-7.4,2.3-36.4,0-44-2.6-8.9-12-11.3-20-12-6-.5-25.9,1.2-29.5-.5-2.8-1.4-2.6-12-3.5-15.6-7.1-30.2-37.8-32.9-63.8-30.6M450,172h-45.5c-2.1,0-10.5,3.8-12.8,5.2-12,7.1-17.6,19.3-16.5,33.1l28.8,19.7v-23.5c0-.9,5.4-4.5,6.5-4.5h39.5v-30h0ZM696,202h40.5c1.1,0,7.6,4,6.5,6.5v428.1c.4,3.1-1.2,4.9-4,6h-332c-.6-.6-3-2.8-3-3v-40l-2-1c-8.1,7.5-17,14-26.5,19.5-3.9,25.8,2.2,52.1,32.1,54.9l233.9-.7c30.3,0,61.6,2.7,92,.8,22.9-1.4,37.1-11.8,39.5-35.5-.9-145.9,1.7-292.1-1.3-437.8-1.1-11.1-18.5-27.8-29.2-27.8h-46.5v30h0ZM332,203c-46-13.7-96.7-16.4-142,1.5l36.7,21.3c15.3-.5,30.4-2.5,45.8-1.8,5.9.2,13.3,2.4,19,2.1,4.3-.2,34-17.3,39.2-20.9.9-.6,1.9.2,1.3-2.2M262.8,236.3c-6.3,0-29.5,1.8-34.3,4.7-6,3.6-22.1,23.6-26.9,30.1-3.3,4.5-16.6,22.8-15.4,27.2l35.8,55.2c18.6.9,36.9-.8,55.5-.5,2.9,0,5.3,1,7.9,1.1,5.8.1,23.5,1,27.8-.2,3-.9,13-19.8,15.2-23.8,3.5-6.3,13.5-24.2,15-30,1.8-7-5-15.3-9.1-21-5.9-8.2-29-33.9-37.1-37.9-6.2-3.1-27.2-4.9-34.6-4.9h.2ZM48,406c1.6-4.1,5.5-8.8,8.5-12,3.3-3.6,11.9-9.1,13.7-12.3,2.5-4.3,4.8-16.2,7-22,4.1-10.8,8.4-22.1,13.6-32.4,4.4-9,14-20.3,17-28s3.9-21.2,6.5-30.5c2.4-8.5,5.8-16.5,8.7-24.8-43.1,34.4-66.2,85.7-73.9,139.6-.8,5.5-1.8,12.3-2.2,17.8,0,1.1-.7,4.7,1,4.5M478,404c-5.8-57.2-26.8-116.5-73-153,2.5,7.5,4.8,15.2,6.5,23,1.6,7.1,2.2,17.6,4.2,23.8,2.7,8,19.7,28.5,25.1,39.9s9,32.8,14.3,41.7c3.2,5.4,15.3,16.6,20.6,23.4.6.8,0,1.8,2.3,1.3h0ZM568.8,279.2c-3.9.3-10.4,7.7-13.3,10.8-10.5,11.2-19.4,24-30.1,34.9-2.9.5-16.6-19.2-24-19.9s-13.8,8-10.6,14.7l29.3,30.7c9.1,5.7,15-4.4,20.5-10.4,13.4-15,25.9-30.8,38.9-46.1,3.4-6.1-4.7-15.3-10.7-14.8h0ZM691.9,295.3c-28,.6-56.2.9-84.2.7-9.7,1.5-12.1,14.8-4.1,19.9,6.7,4.3,16.8,1.1,24,1,25.3-.4,50.7.5,76,0,9.2-1.1,13.4-12.8,6.1-18.9-5.3-4.4-11.4-2.8-17.7-2.6M157.8,300.3c-7,.3-35.1,2.1-39.3,5.7-10.4,8.7-22.2,35.8-27.2,48.8-2.8,7.2-11,27.8-10,34.5.6,4,6,15.8,7.9,20.1,3.2,7.2,20.3,39.7,26.6,41.5,11.6-1,23.1-2.3,34.6-4,5.5-.8,27.8-3.9,30.8-6.2,1.1-.8,1.8-2.3,2.4-3.6,5.5-11.2,9.9-29.9,14.5-42.5,2.8-7.8,10.4-22.5,11.8-29.2.9-4.1,0-5.6-1.6-9-4-8.7-13.6-22.5-19.2-30.8-3.5-5.2-13.2-20.7-17-24-3.1-2.7-10.1-1.3-14.2-1.2h0ZM356.3,301.2c-9.2,20.7-19.6,40.9-31.2,60.3,10,24.9,18.2,50.5,24.3,76.7,1.5,3.3,3.6,3.5,6.7,4.3,18.9,4.8,39.1,5.5,58.3,8.3,6.4-1.7,23.3-39.8,25.8-47.3,3.9-12.1,4.6-15.2,1.7-27.8-4.7-19.8-16.3-47.9-29.7-63.3-5.1-5.8-7.3-7.3-14.9-9.1-8.6-2-27-4.2-35.6-3.5-1.8.2-3.7.1-5.2,1.3h-.2ZM568.7,385.3c-3.6.2-6.3,3.8-8.7,6.1-5.4,5.5-31.3,38.2-34.9,39.1-9-4.2-20.8-27.8-32.1-15.1-5.3,6-2.7,10.2,1.5,15.5,3.8,4.9,21.3,22.7,26,26,7.2,5,11.2-.9,16-6,14.9-15.6,28.1-35.1,42.9-51.1,3.3-6.7-4.2-15.1-10.8-14.6h0ZM605.8,404.2c-9.7,2.9-9.1,19.2.8,20.7h97c13-1.5,12.3-19.2,1.9-20.9h-99.7v.2h0ZM117.3,464.2c-4.7,15.3-7.8,33.2-6.3,49.3.6,6.5,5.5,12.5,9.2,17.8,15.2,21.4,44.8,45.5,69.6,54.5,9.9,3.6,18.1.9,28.1-1.4,13.9-3.3,28.8-8.4,40.7-16.3.5-3.8,1.3-7.6,1.5-11.5.7-11.6,1.5-36.2,0-47.1-.2-1.4-.2-2.6-1.5-3.5-25.3-15.5-48.4-34.2-72.3-51.8l-69,10h0ZM412.8,465.3c-.8-.9-4-1.8-5.3-2.2l-59.7-8.9-74,53.1-1.2,59.7c2.8,6.6,34.8,16.9,42.5,18.5,20.5,4.4,26.1,1.9,43.7-8.3,15.6-9,53.4-41.9,57.9-59.1,2.6-10.1.9-29.7-.7-40.4-.4-2.8-1.4-10.6-3.1-12.4M493.4,521.3c-6.4,6.1-2.8,11.6,1.7,17.1,3,3.8,24.8,25.5,27.7,26.3,5.6,1.5,8.3-2.2,11.8-5.8,15.1-15.6,28.6-35.4,43.9-51.1,6-8.2-5.1-20.1-13.4-15.4-2.2,1.2-7.5,7.2-9.6,9.4-4.2,4.5-27.9,34.3-30.2,34.9-10.2-3.8-14.8-20-27.8-17.8-1.4.2-3.2,1.3-4.2,2.3h.1ZM65,495l-2,.5c29.2,62.5,80.4,116.7,150,131.5l-22.5-28c-26-10.8-54.1-30-72.5-51.5-5.9-6.9-11.4-19.6-16.5-24.5s-16.9-10.6-23.4-15.6c-4.4-3.3-10.6-7.9-13.1-12.4h0ZM317,626c56.5-15.8,104-55.6,131.5-107,3.5-6.5,7.5-14,9.5-21-4,2.8-6.9,6.8-10.5,10-5.9,5.2-15.6,10.4-20.5,15.5-5.4,5.6-11.4,17.1-17,24-11.8,14.4-28.6,28.7-44.5,38.5-7.9,4.9-21.9,10-28,15-7,5.8-12.5,19-20.5,25M676.8,509.3c-1.2,0-2.8,1-4.2.7-19.7,2.2-47-3.2-65.8.2-9.5,1.7-10.6,14.9-3.2,19.8,6.8,4.5,28.9,1,38,1,17.8-.2,45.7,2.5,62,0,9.9-1.5,13.7-14.4,5.1-19.9-5.5-3.5-24.1-1.8-31.7-1.7"/>
  <path class="st0" d="M572.7,130.4c25.5,0,26.5,37.4,4.7,40.5-31.2,4.5-32.7-40.4-4.7-40.5"/>
</svg>